inDegrees=no
num_controls=7
num_derivatives=13
num_iterations=67
num_multipliers=7
num_parameters=0
num_slacks=7
num_states=26
objective=0.477497
objective_accelerations=0.045698
objective_balance=0.003375
objective_effort=0.041018
objective_height=0.381752
objective_ligament=0.005653
solver_duration=959.678517
status=Solve_Succeeded
success=true
DataType=double
version=3
OpenSimVersion=4.5
endheader
time	/jointset/ground_pelvis/pelvis_tilt/value	/jointset/ground_pelvis/pelvis_tx/value	/jointset/ground_pelvis/pelvis_ty/value	/jointset/hip_l/hip_flexion_l/value	/jointset/hip_l/hip_adduction_l/value	/jointset/hip_l/hip_rotation_l/value	/jointset/back/lumbar_extension/value	/jointset/patellofemoral_l/patellar_flexion_l/value	/jointset/knee_l/knee_flexion_l/value	/jointset/knee_l/knee_adduction_l/value	/jointset/knee_l/knee_rotation_l/value	/jointset/ankle_l/ankle_angle_l/value	/jointset/subtalar_l/subtalar_angle_l/value	/jointset/ground_pelvis/pelvis_tilt/speed	/jointset/ground_pelvis/pelvis_tx/speed	/jointset/ground_pelvis/pelvis_ty/speed	/jointset/hip_l/hip_flexion_l/speed	/jointset/hip_l/hip_adduction_l/speed	/jointset/hip_l/hip_rotation_l/speed	/jointset/back/lumbar_extension/speed	/jointset/patellofemoral_l/patellar_flexion_l/speed	/jointset/knee_l/knee_flexion_l/speed	/jointset/knee_l/knee_adduction_l/speed	/jointset/knee_l/knee_rotation_l/speed	/jointset/ankle_l/ankle_angle_l/speed	/jointset/subtalar_l/subtalar_angle_l/speed	/forceset/tau_hip_flexion_l	/forceset/tau_hip_adduction_l	/forceset/tau_hip_rotation_l	/forceset/tau_knee_flexion_l	/forceset/tau_ankle_angle_l	/forceset/tau_subtalar_angle_l	/forceset/tau_lumbar_extension	lambda_cid13_p0	lambda_cid13_p1	lambda_cid13_p2	lambda_cid13_p3	lambda_cid13_p4	lambda_cid13_p5	lambda_cid14_p0	/jointset/ground_pelvis/pelvis_tilt/accel	/jointset/ground_pelvis/pelvis_tx/accel	/jointset/ground_pelvis/pelvis_ty/accel	/jointset/hip_l/hip_flexion_l/accel	/jointset/hip_l/hip_adduction_l/accel	/jointset/hip_l/hip_rotation_l/accel	/jointset/back/lumbar_extension/accel	/jointset/patellofemoral_l/patellar_flexion_l/accel	/jointset/knee_l/knee_flexion_l/accel	/jointset/knee_l/knee_adduction_l/accel	/jointset/knee_l/knee_rotation_l/accel	/jointset/ankle_l/ankle_angle_l/accel	/jointset/subtalar_l/subtalar_angle_l/accel	gamma_cid13_p0	gamma_cid13_p1	gamma_cid13_p2	gamma_cid13_p3	gamma_cid13_p4	gamma_cid13_p5	gamma_cid14_p0
0.5	-0.09048827710111944	-0.03705173588309971	0.8054724071359691	0.9293656085791433	-0.329456961907966	-0.07564307099720127	-0.7896036434007939	0.9367746668458219	0.9367746668458686	-0.0996991071352311	-0.1743926220709127	0.1637129342766788	0.01895631295823934	-0.1159663992665862	-0.1458479158564095	-0.423701179128705	1.596906074839325	-0.02864052847189406	0.5682066929612446	-0.8351158368332012	1.826215823824915	1.826215823824922	0.160874127074768	0.0005609723395301689	0.4708241914732764	0.1327939994432802	-0.2663675966299484	0.05703555135115249	-0.005714423873526844	-0.2511380442872496	0.08828414017109945	0.01522032332958189	0.3237939412197957	-16.56490374210127	-3.894275982963948	0.3772720190402362	-8.869343652343018	-698.9818458130778	-44.67888766424872	-9.115782753273264	0.2795147738283332	0.6528689826243202	-0.2256511774142269	-1.443597457387008	0.3215068421182605	-0.520953851182443	1.832306477682209	-1.386217687926968	-1.386217687926971	-0.2113050102289895	-0.01158803070082497	-0.295429992178832	0.3390457943250987	-2.729368282972249e-07	-1.573226466198377e-07	1.680154898690005e-06	1.586738122790697e-07	-3.074694309125042e-07	-1.232522998187839e-07	-2.325026778800972e-07
0.51	-0.09163391063808814	-0.03847754725046949	0.8012250433208564	0.9452602065510558	-0.3297281320913433	-0.06998611569506559	-0.7978621438613186	0.954964650912721	0.9549646509127218	-0.09810356338672911	-0.1743874970681113	0.1684052782494205	0.02029986251126975	-0.1131547094115845	-0.1393133289891718	-0.4256764250068229	1.581807057595461	-0.02559915207260551	0.5631085163963213	-0.8164790581137229	1.811520523514734	1.811520523514751	0.1582433738440055	0.0004599131464386817	0.4675678881014299	0.1358888766164063	-0.2725453497106536	0.05739383511232944	-0.005842119822279544	-0.2548535174152035	0.08687094391467132	0.01539829663350467	0.3300496969662288	-17.28322105669744	-3.731379320473198	0.2206078341644493	-8.604282534043282	-703.5987822492211	-44.51716014829425	-8.369535593270024	0.2828112228062686	0.6539397630505948	-0.1692471915137461	-1.574056251654298	0.2943730396485441	-0.5158440692357135	1.895143142972111	-1.550210225455239	-1.550210225453808	-0.2876421968828952	-0.009653025759790492	-0.3522351593423838	0.2904786357358261	-2.664731613842367e-07	-1.666056030222925e-07	1.652829558626064e-06	1.539213713662042e-07	-2.966300020794467e-07	-9.539359077675961e-08	-2.312477362756886e-07
0.52	-0.09275126425022055	-0.03983797550431256	0.7969607698672618	0.9609976138717801	-0.3299691045105515	-0.06438246106061382	-0.8059311206198695	0.9729998771719381	0.9729998771719013	-0.09653406351402416	-0.174383440289662	0.1730627582585127	0.02167351482741768	-0.110310414297724	-0.1327712931510687	-0.42708310682505	1.565467944600867	-0.02260097564074586	0.5575465594278667	-0.7972110964385398	1.79526426228889	1.795264262288916	0.1556653519179266	0.000347327467489191	0.4638513987433887	0.1388145520667111	-0.2787231027913172	0.05775211887350025	-0.00596981577101769	-0.2585689905431497	0.08545774765824081	0.01557626993741913	0.3363054527126998	-18.00339092502284	-3.568971298913415	0.0649517453455845	-8.385943462218835	-708.2686786904543	-44.41015619004865	-7.628749671470333	0.2860358256003097	0.6543587767972892	-0.1119383654360896	-1.691616607532984	0.3128668486324739	-0.6137099318887088	1.95854306882339	-1.698409871059619	-1.698409871059629	-0.2007587492922417	-0.01389332787243524	-0.3874671894179049	0.3052054497608039	-2.650896725455245e-07	-2.322109944971783e-07	1.610530035562736e-06	1.423443058792032e-07	-2.925335917489247e-07	-8.76804187500396e-08	-2.349507603580608e-07
0.53	-0.0938397953542886	-0.04113300153499273	0.7926853341149994	0.976565213481521	-0.3301803981012375	-0.05883683408178639	-0.8138047252661389	0.9908648163731317	0.99086481637313	-0.09499010685891852	-0.1743807754108056	0.1776808365389708	0.02307547756975823	-0.1073702198047968	-0.1262379328270336	-0.4279033463314387	1.547825230670111	-0.01966788050152569	0.5515143829916673	-0.777447681890003	1.777470462517672	1.777470462517684	0.1531254985248153	0.0001875331181634199	0.4596955034176233	0.1415470285390349	-0.2846587251213122	0.05798874754220745	-0.006048602456893904	-0.2624022982051916	0.08403662402750256	0.01562238174194424	0.3422897246846253	-18.73140979848272	-3.342613949203771	-0.1069635910657703	-8.067401364593319	-712.8703325908708	-44.23016325642626	-6.918353525346959	0.3018256742497085	0.6522489363234769	-0.05202022527824691	-1.834642214863075	0.2818008204756405	-0.6078607225672678	1.99456328684095	-1.857784965747695	-1.857784965749898	-0.2806958337638529	-0.01642650840496442	-0.4399675189277134	0.2524798394241189	-2.565505266594482e-07	-2.301180360299846e-07	1.574304299700033e-06	1.383261792125288e-07	-2.81487767883178e-07	-5.829065695460619e-08	-2.311239392638458e-07
